PathFileType	4	(X/Y/Z)	s02c0403.trc
DataRate	CameraRate	NumFrames	NumMarkers	Units	OrigDataRate	OrigDataStartFrame	OrigNumFrames
200	200	4	51	mm	200	750	2000
Frame#	Time	racr			lacr			c7			jug			rlel			rdr			llel			ldr			s2			lic			ric			lasi			rasi			rpsi			lpsi			rgt			lgt			rth1			rth2			rth3			rth4			rlfc			rmfc			rsh1			rsh2			rsh3			rsh4			rlmal			rmmal			rcal			rtoe			rmt5			rmt1			lth1			lth2			lth4			lth3			llfc			lmfc			lsh1			lsh2			lsh3			lsh4			llmal			lmmal			lcal			ltoe			lmt5			SBIKE			LBIKE			RBIKE			
		X1	Y1	Z1	X2	Y2	Z2	X3	Y3	Z3	X4	Y4	Z4	X5	Y5	Z5	X6	Y6	Z6	X7	Y7	Z7	X8	Y8	Z8	X9	Y9	Z9	X10	Y10	Z10	X11	Y11	Z11	X12	Y12	Z12	X13	Y13	Z13	X14	Y14	Z14	X15	Y15	Z15	X16	Y16	Z16	X17	Y17	Z17	X18	Y18	Z18	X19	Y19	Z19	X20	Y20	Z20	X21	Y21	Z21	X22	Y22	Z22	X23	Y23	Z23	X24	Y24	Z24	X25	Y25	Z25	X26	Y26	Z26	X27	Y27	Z27	X28	Y28	Z28	X29	Y29	Z29	X30	Y30	Z30	X31	Y31	Z31	X32	Y32	Z32	X33	Y33	Z33	X34	Y34	Z34	X35	Y35	Z35	X36	Y36	Z36	X37	Y37	Z37	X38	Y38	Z38	X39	Y39	Z39	X40	Y40	Z40	X41	Y41	Z41	X42	Y42	Z42	X43	Y43	Z43	X44	Y44	Z44	X45	Y45	Z45	X46	Y46	Z46	X47	Y47	Z47	X48	Y48	Z48	X49	Y49	Z49	X50	Y50	Z50	X51	Y51	Z51	
750	3.7500	666.301933	1202.465470	-125.881905	727.286752	1211.443737	-466.459327	699.485172	1250.651595	-305.524507	624.942258	1129.931167	-306.293208	533.651617	980.214922	-65.420282	689.694691	877.874420	-132.824130	551.855641	1017.573897	-605.989547	700.855872	889.339179	-513.761065	158.560764	1161.825275	-337.195514	274.930687	1134.053846	-481.550386	276.627229	1124.808970	-188.594202	311.349061	1093.788572	-452.067924	327.176194	1089.537934	-218.603285	178.558395	1184.830293	-294.267150	183.590069	1193.713798	-378.239082	223.518201	1046.512272	-159.281509	220.519165	1063.293661	-520.042384	275.481347	962.321306	-140.490178	316.637177	884.079157	-141.139011	317.875140	800.762604	-118.341841	345.301205	888.673331	-165.402668	326.133897	663.448857	-151.706186	322.975346	644.307147	-255.010903	309.372224	559.070078	-127.902733	322.561564	471.726270	-140.238153	290.879133	390.937146	-137.876597	338.471498	471.857643	-176.399753	268.805040	271.599490	-145.664681	281.087407	289.732976	-224.488491	190.596451	247.756695	-191.364218	458.030376	141.841474	-190.218451	349.809168	164.196726	-129.278542	380.802360	172.785403	-235.757002	340.853160	1000.497486	-526.321914	422.913936	971.183152	-522.512270	440.911872	997.690819	-505.403866	480.109127	903.363795	-525.478187	554.067101	833.426203	-502.852557	547.262030	807.235916	-390.074463	487.970131	755.536538	-517.151170	425.265328	699.158773	-497.175362	339.034475	673.563546	-504.403116	434.938367	687.478886	-459.211653	235.097515	635.182782	-495.687238	245.557234	630.485268	-414.498274	148.782449	637.886444	-455.933244	356.707773	441.448650	-434.134355	266.032979	489.804102	-505.136273	-128.686052	869.740102	-313.463063	32.830626	82.478037	-515.199573	32.893554	82.335731	-115.024005	
751	3.7550	666.990728	1202.446021	-127.342287	726.958563	1210.113372	-468.336054	699.790682	1250.182684	-307.489973	624.926887	1129.728331	-307.624481	534.272825	980.325714	-65.656408	689.955922	877.409661	-132.799004	551.004728	1016.272719	-606.676477	700.522658	889.490994	-513.743607	158.615924	1162.291432	-336.530644	274.670281	1135.268733	-481.247958	277.218785	1125.025215	-188.542608	311.067754	1094.812801	-452.001285	327.680133	1089.729274	-218.626131	178.321961	1186.334636	-292.773253	183.933908	1194.291158	-377.752885	224.127228	1046.724187	-159.281394	220.419185	1064.275137	-520.276230	275.766673	962.413001	-140.755093	316.525701	883.943990	-141.403317	317.401119	800.651193	-118.552538	345.094630	888.384999	-165.826225	324.823901	663.295498	-151.881597	321.636547	644.054198	-255.042949	307.753172	558.972345	-127.919437	320.880495	471.547808	-140.144735	289.161559	390.775009	-137.720205	336.830353	471.732056	-176.188986	267.097504	271.544370	-145.431338	279.477416	289.608276	-224.054625	188.645023	248.945538	-191.002135	454.822860	139.319724	-190.256441	346.923282	163.165868	-129.186295	377.780149	171.180741	-235.890937	340.753169	1001.768734	-526.216992	422.881716	972.690880	-522.470669	440.823702	999.341774	-505.520901	480.301865	905.130900	-525.476301	554.678610	835.639367	-502.871246	549.310428	810.134966	-390.319386	489.082501	757.403276	-517.198362	426.697834	700.774527	-497.141787	340.594234	674.665449	-504.302168	436.398091	689.110196	-459.008354	236.799182	635.739752	-495.372386	247.517275	631.230381	-414.313115	150.259795	637.863147	-455.856705	360.369506	443.713883	-434.144920	269.119599	490.851996	-505.038342	-128.706782	869.729708	-313.494937	32.846731	82.470846	-515.208382	32.376489	82.785226	-115.110210	
752	3.7600	667.811431	1202.426787	-128.850997	726.598518	1208.793785	-470.297592	700.200366	1249.751681	-309.358129	624.892685	1129.442086	-308.930367	534.973126	980.466397	-66.042972	690.247930	877.093398	-132.759233	550.094827	1014.914703	-607.387460	700.198640	889.616071	-513.756589	158.947268	1162.866657	-336.081433	274.333066	1136.312903	-481.057275	277.855812	1125.307332	-188.466707	310.799770	1095.795870	-451.981942	328.261709	1090.011581	-218.646120	178.569110	1187.156071	-292.027591	183.952674	1195.133290	-377.236768	224.749909	1046.957076	-159.313630	220.200258	1065.329323	-520.218462	276.094203	962.494223	-141.009542	316.398480	883.632993	-141.985325	316.925799	800.533165	-118.825598	344.953102	887.950138	-166.463248	323.463324	663.091578	-152.097175	320.274730	643.869895	-255.218377	306.128194	559.002695	-128.051279	319.247085	471.551616	-140.160411	287.489583	390.903483	-137.501693	335.224118	471.622446	-176.106193	265.407706	271.533685	-145.112462	278.034379	289.596764	-223.739773	186.834451	249.826892	-190.715447	451.498904	137.020904	-190.294423	344.016789	162.189997	-129.152202	374.814897	169.823851	-235.841015	340.649540	1003.022504	-526.070144	422.859616	974.133984	-522.405125	440.771309	1000.905104	-505.650159	480.487705	906.778634	-525.569328	555.253118	837.757624	-502.912001	550.172675	812.232744	-390.386193	490.176220	759.190130	-517.110571	428.087923	702.103341	-497.169336	342.124186	675.621394	-504.166986	437.845281	691.040967	-459.136441	238.512778	636.240261	-495.124864	250.124484	631.762407	-414.783216	151.737591	637.691242	-455.763902	364.073430	445.932212	-434.270338	272.171217	491.977503	-505.047170	-128.723590	869.728513	-313.484345	32.835778	82.462871	-515.203155	32.360592	82.787258	-115.101552	
753	3.7650	668.673291	1202.377542	-130.357342	726.315188	1207.316158	-472.194706	700.596756	1249.161412	-311.415092	624.796297	1129.265846	-310.441869	535.591818	981.081667	-66.150053	690.584319	876.819618	-132.711763	549.141424	1013.411605	-608.024421	699.878339	889.708484	-513.755874	159.685874	1163.419293	-335.840877	273.889561	1137.358533	-480.926515	278.481762	1125.690170	-188.359690	310.559483	1096.902720	-452.021903	328.861800	1090.318639	-218.699280	178.755139	1188.073455	-291.445228	183.996739	1195.901118	-376.760788	225.343571	1047.199952	-159.318963	219.969306	1066.432744	-520.081429	276.400073	962.625951	-141.252943	316.274674	883.543300	-142.271492	316.437218	800.484087	-119.101117	344.845945	887.782394	-166.725569	322.348956	663.069215	-152.308062	318.894447	643.772713	-255.479970	304.703799	559.297784	-127.860049	317.702202	471.581972	-140.187504	285.865733	390.878584	-137.516207	333.678931	471.579256	-176.121967	263.675774	271.704510	-144.772360	276.195653	289.646857	-223.400232	184.928803	251.007136	-190.358113	448.181042	134.779923	-190.390829	341.138445	161.271358	-129.127925	371.768845	168.471433	-235.924737	340.508622	1004.212040	-525.673955	422.770611	975.919041	-522.276137	440.745413	1002.410677	-505.781521	480.575486	908.306257	-525.750741	555.758406	839.840543	-502.967313	550.897036	814.351780	-390.361802	491.221019	760.864620	-517.007794	429.419015	703.519294	-496.783399	343.641554	676.497964	-503.968540	439.278651	692.486548	-458.947778	240.264914	636.662947	-494.825640	251.479545	632.136985	-414.507709	153.245442	637.392686	-455.656491	367.779061	448.076120	-434.253456	275.284477	493.007433	-505.059314	-128.757775	869.722124	-313.548761	32.851144	82.463041	-515.207562	32.369103	82.794113	-115.121443	
